<svg xmlns="http://www.w3.org/2000/svg" width="100" height="100" viewBox="0 0 64 64" opacity=".3">
    <defs>
        <linearGradient id="prefix__a" x1="39" x2="39" y1="27" y2="40" gradientUnits="userSpaceOnUse"
            spreadMethod="reflect">
            <stop offset="0" stop-color="#0ff" />
            <stop offset="1" stop-color="#f0f" />
        </linearGradient>
        <linearGradient id="prefix__b" x1="39" x2="39" y1="7.252" y2="53.649" gradientUnits="userSpaceOnUse"
            spreadMethod="reflect">
            <stop offset="0" stop-color="#0ff" />
            <stop offset=".5" stop-color="#0f8" />
            <stop offset="1" stop-color="#f0f" />
        </linearGradient>
        <linearGradient id="prefix__d" x1="30.5" x2="30.5" y1="7.25" y2="53.649" gradientUnits="userSpaceOnUse"
            spreadMethod="reflect">
            <stop offset="0" stop-color="#0ff" />
            <stop offset="1" stop-color="#f0f" />
        </linearGradient>
        <filter id="prefix__c">
            <feGaussianBlur stdDeviation="1.5" result="coloredBlur" />
            <feMerge>
                <feMergeNode in="coloredBlur" />
                <feMergeNode in="SourceGraphic" />
            </feMerge>
        </filter>
    </defs>
    <path fill="url(#prefix__a)"
        d="M44.455 28.747C43.023 27.662 41.1 27.001 39 27c-2.1.001-4.024.662-5.456 1.747-1.457 1.105-2.423 2.661-2.534 4.428-.112 1.815.702 3.504 2.132 4.754C34.6 39.201 36.678 40 39.001 40c2.322 0 4.399-.799 5.855-2.072 1.43-1.249 2.245-2.938 2.134-4.754-.111-1.765-1.078-3.322-2.535-4.427z" />
    <path fill="url(#prefix__b)" filter="url(#prefix__c)"
        d="M38.976 45c-3.721 0-7.14-1.343-9.63-3.784-1.21-1.183-2.112-2.546-2.682-4.049a10.23 10.23 0 01-.622-4.564 10.45 10.45 0 011.355-4.287c.735-1.285 1.734-2.431 2.969-3.406 2.384-1.873 5.449-2.906 8.633-2.911h.017c3.176 0 6.234 1.024 8.615 2.886 1.237.972 2.236 2.114 2.971 3.398a10.456 10.456 0 011.357 4.283c.14 1.563-.07 3.099-.622 4.565-.568 1.504-1.469 2.869-2.68 4.056-2.494 2.453-5.922 3.806-9.652 3.812l-.029.001zm.041-21h-.015c-2.739.003-5.366.885-7.398 2.482-1.031.814-1.863 1.766-2.47 2.828a8.47 8.47 0 00-1.099 3.473 8.245 8.245 0 00.501 3.678c.465 1.227 1.208 2.347 2.21 3.326C32.861 41.86 35.783 43 38.977 43h.024c3.204-.004 6.135-1.155 8.254-3.239 1.002-.983 1.745-2.105 2.209-3.335a8.259 8.259 0 00.502-3.681 8.465 8.465 0 00-1.101-3.468c-.606-1.06-1.436-2.008-2.468-2.818C44.369 24.874 41.748 24 39.017 24z" />
    <path fill="url(#prefix__d)" filter="url(#prefix__c)"
        d="M38.853 54c-15.676 0-20.545-12.201-20.545-16.645v-.064L8.79 45.024a4.124 4.124 0 01-5.797-.464 4.091 4.091 0 01-.981-3 4.098 4.098 0 011.428-2.816L19.982 25H13c-2.206 0-4-1.794-4-4s1.794-4 4-4h21.234l-4.831-3.703a1.4 1.4 0 01-.088-.063 3.478 3.478 0 01-1.294-2.347 3.47 3.47 0 01.747-2.573 3.476 3.476 0 012.345-1.293 3.483 3.483 0 012.574.746l18.027 13.176a1.8 1.8 0 01.159.141l.007-.009a18.876 18.876 0 014.482 4.943 17.355 17.355 0 012.467 6.756c.175 1.24.215 2.493.121 3.726C58.953 46.608 50.5 54 38.853 54zM19.352 34.154a1.001 1.001 0 01.999 1.027 82.064 82.064 0 00-.043 2.156C20.308 41.108 24.873 52 38.853 52c10.657 0 18.1-6.405 18.1-15.576a15.56 15.56 0 00-.104-3.369 15.36 15.36 0 00-2.185-5.98 16.872 16.872 0 00-3.943-4.367.923.923 0 01-.245-.193L32.472 9.355a1.518 1.518 0 00-1.137-.346 1.491 1.491 0 00-1.005.554 1.485 1.485 0 00-.32 1.103c.042.382.226.727.518.975l7.683 5.515c.375.239.548.696.424 1.124-.125.427-.544.666-.989.666L13 19c-1.103 0-2 .897-2 2s.897 2 2 2h9.75a1 1 0 01.639 1.769L4.73 40.271c-.419.359-.681.875-.724 1.441s.136 1.115.505 1.545c.733.856 2.137.967 2.997.23l11.213-9.11c.182-.147.405-.223.631-.223z" />
</svg>