<svg xmlns="http://www.w3.org/2000/svg" width="100" height="100" viewBox="0 0 48 48" opacity=".3">
    <linearGradient id="prefix__a" x1="1" x2="45.667" y1="25.776" y2="25.776"
        gradientTransform="matrix(1 0 0 -1 0 49.276)" gradientUnits="userSpaceOnUse">
        <stop offset="0" stop-color="#ffa402" />
        <stop offset="1" stop-color="#f80" />
    </linearGradient>
    <path fill="url(#prefix__a)"
        d="M39 16C35.612 13.527 26.115 5.591 26.115 5.591a2.5 2.5 0 10-3.23 3.817L28.311 14H9.5a2.5 2.5 0 100 5h8.787L1.978 31.517a2.5 2.5 0 103.045 3.966l9.996-7.672c-.003.116-.019.227-.019.343C15 35.971 21.532 42 30 42s15.667-6.029 15.667-13.846c0-4.879-2.791-9.324-6.667-12.154z" />
    <ellipse cx="30.5" cy="27" fill="#fff" rx="9.75" ry="9" />
    <path
        d="M30.5 18c5.385 0 9.75 4.029 9.75 9s-4.365 9-9.75 9-9.75-4.029-9.75-9 4.365-9 9.75-9m0-.5c-5.652 0-10.25 4.262-10.25 9.5s4.598 9.5 10.25 9.5 10.25-4.262 10.25-9.5-4.598-9.5-10.25-9.5z"
        opacity=".07" />
    <path
        d="M30.5 17.5c5.652 0 10.25 4.262 10.25 9.5s-4.598 9.5-10.25 9.5-10.25-4.262-10.25-9.5 4.598-9.5 10.25-9.5m0-.5c-5.928 0-10.75 4.486-10.75 10s4.822 10 10.75 10 10.75-4.486 10.75-10-4.822-10-10.75-10z"
        opacity=".05" />
    <ellipse cx="30.5" cy="27" fill="#0370c8" rx="5.5" ry="5" />
    <path
        d="M30.5 21.5c3.308 0 6 2.467 6 5.5s-2.692 5.5-6 5.5-6-2.467-6-5.5 2.692-5.5 6-5.5m0-.5c-3.584 0-6.5 2.692-6.5 6s2.916 6 6.5 6 6.5-2.692 6.5-6-2.916-6-6.5-6z"
        opacity=".05" />
    <path
        d="M30.5 22c3.038 0 5.5 2.239 5.5 5s-2.462 5-5.5 5-5.5-2.239-5.5-5 2.462-5 5.5-5m0-.5c-3.308 0-6 2.467-6 5.5s2.692 5.5 6 5.5 6-2.467 6-5.5-2.692-5.5-6-5.5z"
        opacity=".07" />
</svg>